<svg xmlns="http://www.w3.org/2000/svg" width="512" height="512"><path d="M32.82 420.103h446.359c18.131 0 32.821 14.69 32.821 32.82s-14.69 32.821-32.821 32.821H32.82c-18.13 0-32.82-14.69-32.82-32.821s14.69-32.82 32.82-32.82zm183.795-196.924h262.564C497.31 223.179 512 237.87 512 256s-14.69 32.821-32.821 32.821H216.615c-18.13 0-32.821-14.69-32.821-32.821s14.691-32.821 32.821-32.821z" fill="#f7f7f7" data-original="#ff485a" xmlns="http://www.w3.org/2000/svg"/><path xmlns="http://www.w3.org/2000/svg" d="M32.82 223.179h52.513c18.13 0 32.821 14.69 32.821 32.821s-14.69 32.821-32.821 32.821H32.82C14.69 288.821 0 274.131 0 256s14.69-32.821 32.82-32.821z" fill="#f7f7f7" data-original="#ffbbc0"/><path xmlns="http://www.w3.org/2000/svg" d="M32.82 26.256h446.359C497.31 26.256 512 40.947 512 59.077c0 18.13-14.69 32.821-32.821 32.821H32.82C14.69 91.898 0 77.208 0 59.077c0-18.13 14.69-32.821 32.82-32.821z" fill="#f7f7f7" data-original="#ff485a"/></svg>